<svg version="1" xmlns="http://www.w3.org/2000/svg" width="2560" height="2560" viewBox="0 0 1920.000000 1920.000000"><path d="M0 960v960h1920V0H0v960zm1072.5-489c47.7 1.9 87.1 7.4 130 18.1 106.6 26.6 202.6 81.7 268.8 154.4 61.4 67.3 96.1 141.3 106.3 226.5 2.4 20.1 2.4 59.1 0 79.5-7.7 65.7-30.7 125.2-69.7 180.7l-8.8 12.6 1.5 8.9c2.2 12.4 2.2 39.8 0 53.7-12.7 80.6-80.3 153.5-184.3 198.5-55.3 23.9-115 38.2-185.3 44.3-18.8 1.6-78.3 1.6-97 0-79.4-6.9-147.7-25-208.3-55.3-7.8-3.9-17.2-8.9-21-11.1l-6.7-3.9-13.8 4.6c-40 13.6-76.5 19.5-121.2 19.5-25.5 0-42.9-1.4-64.8-5-117.1-19.8-213.2-95-245.7-192.3-8.6-25.6-11.9-46.6-11.9-74.2.1-36.6 7.3-68 23.3-101 13.7-28.4 28.8-49.4 52.5-73 27-26.9 58.6-48.8 91.9-63.7 6.2-2.8 11.5-5.5 11.8-6 .3-.5.9-5 1.3-10 1.2-18.1 6-44.8 11.6-64.8 26.8-96.7 91.4-182.2 185-244.7 89-59.5 201.7-94 315.5-96.6 6.1-.2 11.9-.4 13-.5 1.1-.1 12.8.3 26 .8z"/><path d="M833.5 698.3c-10.3 4.7-12.2 16.7-5 31.4 9.7 19.7 34 33.1 47.9 26.4 17.8-8.7 5.8-42-19.7-54.6-8.7-4.3-18-5.6-23.2-3.2zM1083.5 698.7c-12.9 4.6-24.1 14.6-30.2 27.1-3.3 6.7-3.8 8.5-3.8 14.8 0 7.8 1.3 10.7 6.9 14.8 2.2 1.7 4.2 2.1 10 2.1 6.4 0 8.1-.5 15-3.9 10.6-5.2 19-13.6 24.2-24.2 3.4-6.9 3.9-8.6 3.9-15 0-7.8-1.3-10.7-6.8-14.8-3.7-2.8-12.7-3.2-19.2-.9zM789.6 764.6c-37.5 11.6-58 82.4-40.9 141.4 6.9 24.1 20.5 42.9 36.3 50.4 5.7 2.7 7.6 3.1 15 3.1s9.3-.4 15-3.1c25.6-12.2 42.3-49.6 42.3-94.9 0-23.8-4-43.5-12.3-61.3-13.3-28.4-34.5-42-55.4-35.6zM1121.3 764.9c-21.8 8.1-38.2 35-44.4 72.6-1.9 11.7-1.7 38.8.5 51 5.9 32.8 20.6 58 39.4 67.2 7 3.5 8.3 3.8 16.2 3.8 7.6 0 9.2-.4 15-3.2 17.2-8.5 30.6-28.5 37.5-55.8 3.9-15.2 4.8-25.2 4.2-45-.6-19.8-2.7-31.1-8.6-47.6-7-19.1-19.6-35-32.7-41.1-8.8-4.1-19.2-4.8-27.1-1.9zM943.2 1024c-20.8 5.5-39.2 22.4-45.1 41.5-1 3.3-2.2 7.9-2.6 10.2l-.7 4.3h130.4l-.7-4.3c-5.2-31.3-32.5-53.8-64.9-53.6-5.6 0-11.9.8-16.4 1.9z"/></svg>